Coordinates
version=1
nRows=24
nColumns=24
inDegrees=yes

Units are S.I. units (second, meters, Newtons, ...)
Angles are in degrees.

endheader
time	pelvis_tilt	pelvis_list	pelvis_rotation	pelvis_tx	pelvis_ty	pelvis_tz	hip_flexion_r	hip_adduction_r	hip_rotation_r	knee_angle_r	ankle_angle_r	subtalar_angle_r	mtp_angle_r	hip_flexion_l	hip_adduction_l	hip_rotation_l	knee_angle_l	ankle_angle_l	subtalar_angle_l	mtp_angle_l	lumbar_extension	lumbar_bending	lumbar_rotation
      3.85000000	     -9.12936198	    -10.58347500	      7.77075695	     -2.71548009	     -0.02496781	      0.44423924	     23.22497486	     10.96767979	     -8.13610712	    -15.68907575	     -6.79631372	     -6.07581244	      4.52100005	     17.28370840	    -10.64734631	      6.22971072	    -60.70741805	    -27.85069014	     -4.96059877	     25.68746230	      8.48942219	      8.49209914	     -7.04809990
      3.85500000	     -8.97770392	    -10.52000665	      7.65956957	     -2.70958099	     -0.02410298	      0.44496566	     22.50642363	     11.12242070	     -7.89626191	    -15.45337455	     -6.52958986	     -6.05878545	      4.67989871	     17.98477849	    -10.50400175	      6.32837170	    -61.59872973	    -27.49196680	     -6.74229694	     24.91275239	      8.30330837	      8.39350680	     -6.74860847
      3.86000000	     -8.83720192	    -10.33783132	      7.55450716	     -2.70369501	     -0.02312366	      0.44565950	     21.76395493	     11.15310189	     -7.55450488	    -15.20396372	     -6.25501752	     -6.07170278	      4.75163898	     18.64673353	    -10.21764359	      6.40655537	    -62.35805868	    -27.08989916	     -8.34944784	     24.05653720	      8.12065475	      8.16684989	     -6.49903058
      3.86500000	     -8.71222259	    -10.11851635	      7.40953324	     -2.69784692	     -0.02211460	      0.44641066	     21.03208478	     11.15421521	     -7.18526045	    -14.95713964	     -5.98634075	     -6.07303431	      4.78917698	     19.29352213	     -9.90859593	      6.43708726	    -63.00681017	    -26.58110281	     -9.68126368	     23.33097124	      7.94583096	      7.90169338	     -6.19465269
      3.87000000	     -8.60609937	     -9.86989987	      7.25078689	     -2.69203696	     -0.02108418	      0.44717157	     20.31047883	     11.12184897	     -6.78929943	    -14.70013957	     -5.73113130	     -6.07439624	      4.79792968	     19.93852126	     -9.57181275	      6.45343881	    -63.55027565	    -25.96772697	    -10.73075701	     22.74188948	      7.78728718	      7.60276532	     -5.86048721
      3.87500000	     -8.54760675	     -9.53714412	      7.09544672	     -2.68627336	     -0.02001130	      0.44792749	     19.63238469	     10.98734969	     -6.39509924	    -14.44833611	     -5.50222797	     -6.10898582	      4.77650746	     20.58905780	     -9.12984062	      6.48069741	    -63.94512379	    -25.27218842	    -11.50730071	     22.46204792	      7.66933173	      7.20342901	     -5.55797286
      3.88000000	     -8.48805754	     -9.20271282	      6.87164799	     -2.68051768	     -0.01891980	      0.44871225	     18.93362467	     10.86607220	     -5.90289624	    -14.16843083	     -5.28678129	     -6.11015626	      4.74277007	     21.20882692	     -8.72405256	      6.39893408	    -64.24476476	    -24.52773510	    -12.13843066	     22.15389796	      7.55109487	      6.82526933	     -5.16141822
      3.88500000	     -8.48124009	     -8.79418999	      6.70380075	     -2.67485234	     -0.01782246	      0.44946991	     18.30513219	     10.63403640	     -5.50559848	    -13.90903325	     -5.07681457	     -6.15003225	      4.70977311	     21.86323522	     -8.20700385	      6.37895838	    -64.40871282	    -23.72019637	    -12.51986757	     22.11674432	      7.47961602	      6.33931676	     -4.86382038
      3.89000000	     -8.48271440	     -8.35426783	      6.43252538	     -2.66915461	     -0.01669535	      0.45028556	     17.65655585	     10.39084632	     -4.96747991	    -13.61938273	     -4.87983080	     -6.14916596	      4.66165629	     22.47015996	     -7.71064993	      6.21654422	    -64.46019453	    -22.81924761	    -12.67997367	     22.10622650	      7.41933025	      5.85142549	     -4.42454017
      3.89500000	     -8.50905192	     -7.87754721	      6.16966968	     -2.66355146	     -0.01557347	      0.45110044	     17.04938361	     10.09312207	     -4.45426444	    -13.34532612	     -4.69797859	     -6.16201865	      4.60662035	     23.08393851	     -7.17287381	      6.05414237	    -64.40137176	    -21.86814070	    -12.66560854	     22.18842008	      7.37337278	      5.31570058	     -4.03005187
      3.90000000	     -8.55319526	     -7.37997070	      5.89064835	     -2.65800238	     -0.01447649	      0.45191495	     16.46538449	      9.76454940	     -3.93018614	    -13.07053056	     -4.51051809	     -6.16334251	      4.55726025	     23.69500171	     -6.62566160	      5.86171392	    -64.24319311	    -20.88684921	    -12.50910304	     22.33932867	      7.34471957	      4.76385170	     -3.62802765
      3.90500000	     -8.61760064	     -6.86205008	      5.60714562	     -2.65248092	     -0.01338622	      0.45271242	     15.90620590	      9.40026546	     -3.44756426	    -12.78779535	     -4.34532323	     -6.14077911	      4.51448565	     24.30207877	     -6.06265121	      5.65050993	    -63.97652792	    -19.93479101	    -12.28663831	     22.52548437	      7.34148276	      4.18993306	     -3.22665696
      3.91000000	     -8.68672844	     -6.35032332	      5.30303786	     -2.64697016	     -0.01235083	      0.45352865	     15.34657149	      9.03921343	     -2.93339327	    -12.48352177	     -4.15281084	     -6.10098393	      4.48027982	     24.89707892	     -5.52855606	      5.40725015	    -63.62635667	    -18.99022944	    -11.98894340	     22.72168258	      7.35041371	      3.62996673	     -2.81886422
      3.91500000	     -8.76413459	     -5.82849709	      4.99552420	     -2.64151846	     -0.01134105	      0.45430992	     14.81738703	      8.65233045	     -2.48638043	    -12.19692383	     -3.98996439	     -6.04237070	      4.45894115	     25.47995752	     -4.98530951	      5.15329188	    -63.17984588	    -18.10768414	    -11.72942095	     22.89958198	      7.36717809	      3.06401363	     -2.41154676
      3.92000000	     -8.83322958	     -5.33746042	      4.66227195	     -2.63602285	     -0.01039830	      0.45511125	     14.25921023	      8.29725388	     -1.99133260	    -11.86212652	     -3.80001563	     -5.95510309	      4.44606451	     26.04041655	     -4.50320251	      4.86967143	    -62.66669541	    -17.26887508	    -11.44228027	     23.04478921	      7.39531246	      2.53959719	     -1.98728849
      3.92500000	     -8.90025361	     -4.85693171	      4.33251016	     -2.63057706	     -0.00951611	      0.45586436	     13.72579834	      7.93935457	     -1.56704391	    -11.55433211	     -3.63499845	     -5.87184188	      4.43979637	     26.58423425	     -4.03253937	      4.58437185	    -62.07437532	    -16.48917527	    -11.25447907	     23.13530982	      7.42006369	      2.03249101	     -1.57683584
      3.93000000	     -8.94853279	     -4.41638558	      3.97420720	     -2.62508935	     -0.00869948	      0.45661739	     13.15438433	      7.62161246	     -1.09551663	    -11.20107633	     -3.45922805	     -5.76025839	      4.43918843	     27.09683455	     -3.63087724	      4.27508102	    -61.42678308	    -15.77888057	    -11.08913058	     23.15680290	      7.44579456	      1.58188043	     -1.13935145
      3.93500000	     -8.98354557	     -4.00377759	      3.61560717	     -2.61962396	     -0.00796292	      0.45733388	     12.58646412	      7.32410864	     -0.65762057	    -10.86238797	     -3.29447254	     -5.66640220	      4.43441309	     27.58570159	     -3.26618747	      3.96413644	    -60.71890979	    -15.12358873	    -11.02248547	     23.09550634	      7.46265232	      1.16840774	     -0.71903620
      3.94000000	     -9.00326117	     -3.63021893	      3.25158301	     -2.61414893	     -0.00730798	      0.45803912	     12.00568853	      7.06182557	     -0.22427969	    -10.51590953	     -3.13479295	     -5.57935393	      4.42339688	     28.05023354	     -2.95840306	      3.64627799	    -59.95777933	    -14.53774741	    -11.03742955	     22.94825310	      7.47211173	      0.79965032	     -0.29800478
      3.94500000	     -9.01753742	     -3.28141345	      2.89110990	     -2.60869138	     -0.00674866	      0.45867631	     11.43463447	      6.81392420	      0.18330310	    -10.18508253	     -2.97951173	     -5.51801286	      4.40033621	     28.50039384	     -2.67783659	      3.33626636	    -59.14455443	    -14.00698409	    -11.13953690	     22.73384257	      7.48034833	      0.46948304	      0.09251489
      3.95000000	     -8.99909475	     -2.97766836	      2.49978838	     -2.60320730	     -0.00625286	      0.45934251	     10.82016774	      6.61591014	      0.64366386	     -9.83181371	     -2.82872499	     -5.46169777	      4.35434966	     28.90655781	     -2.47917458	      2.99111544	    -58.29197276	    -13.54502414	    -11.29983930	     22.39687399	      7.46457192	      0.19636922	      0.52106063
      3.95500000	     -8.96867313	     -2.70459507	      2.11713553	     -2.59770990	     -0.00583447	      0.45997449	     10.20146369	      6.44078355	      1.09951867	     -9.49088868	     -2.68820215	     -5.43672291	      4.28237234	     29.28910402	     -2.32155801	      2.64558133	    -57.38860061	    -13.13065490	    -11.51654905	     21.96849437	      7.44464115	     -0.04421718	      0.93190778
      3.96000000	     -8.93768431	     -2.45067031	      1.73486383	     -2.59222685	     -0.00550460	      0.46056916	      9.59310420	      6.27707861	      1.54341661	     -9.16140779	     -2.54866685	     -5.43904064	      4.19206824	     29.66027765	     -2.18996890	      2.30406110	    -56.43740058	    -12.76218343	    -11.76853646	     21.48898167	      7.42464146	     -0.25596484	      1.32048987
      3.96500000	     -8.87799725	     -2.23461486	      1.34989453	     -2.58677930	     -0.00524488	      0.46111116	      8.96089819	      6.14452087	      2.03358381	     -8.84086387	     -2.41118936	     -5.47465195	      4.07349568	     29.99356510	     -2.10360060	      1.96720713	    -55.45160449	    -12.41249805	    -12.05057277	     20.89522867	      7.37059254	     -0.41689243	      1.68888994
